<?xml version="1.0" encoding="UTF-8" standalone="no"?>
<svg
   aria-label="Minecraft"
   role="img"
   viewBox="0 0 512 512"
   stroke-linecap="square"
   fill="none"
   version="1.1"
   id="svg33"
   sodipodi:docname="icon.svg"
   inkscape:version="1.1.1 (3bf5ae0d25, 2021-09-20)"
   xmlns:inkscape="http://www.inkscape.org/namespaces/inkscape"
   xmlns:sodipodi="http://sodipodi.sourceforge.net/DTD/sodipodi-0.dtd"
   xmlns:xlink="http://www.w3.org/1999/xlink"
   xmlns="http://www.w3.org/2000/svg"
   xmlns:svg="http://www.w3.org/2000/svg">
  <defs
     id="defs37" />
  <sodipodi:namedview
     id="namedview35"
     pagecolor="#ffffff"
     bordercolor="#666666"
     borderopacity="1.0"
     inkscape:pageshadow="2"
     inkscape:pageopacity="0.0"
     inkscape:pagecheckerboard="0"
     showgrid="false"
     inkscape:zoom="1.4042969"
     inkscape:cx="256.7121"
     inkscape:cy="256"
     inkscape:window-width="2560"
     inkscape:window-height="1351"
     inkscape:window-x="-9"
     inkscape:window-y="-9"
     inkscape:window-maximized="1"
     inkscape:current-layer="a" />
  <g
     id="a"
     transform="matrix(19,11,0,22,76,142)"
     inkscape:label="left">
    <path
       fill="#443322"
       d="m 0.5,0.5 h 9 v 9 h -9"
       id="path4"
       style="display:inline"
       inkscape:label="dark" />
    <path
       stroke="#886644"
       d="M 2,8 V 9 H 4 V 8 H 9 V 7 H 7 V 5"
       id="path6"
       style="display:inline"
       inkscape:label="light" />
    <path
       stroke="#664433"
       d="M 1,5 Z M 2,9 Z M 1,8 V 7 H 3 V 6 H 4 M 5,9 H 7 V 8 H 6 V 4 M 7,6 H 8 V 7 M 9,9 Z M 9,4 v 1"
       id="path8"
       style="display:inline"
       inkscape:label="medium" />
    <path
       stroke="#aa7755"
       d="M 1,7 H 2 M 4,7 H 5 M 9,6 Z"
       id="path10"
       style="display:inline"
       inkscape:label="reflections" />
    <path
       stroke="#555555"
       d="M 5,5 Z"
       id="path12"
       style="display:inline" />
    <path
       stroke="#559933"
       d="M 4,4 V 1 H 8 V 3 H 7 V 2 H 4 V 3 H 2 v 1"
       id="path14"
       style="display:inline"
       inkscape:label="grass-dark" />
    <path
       stroke="#66aa44"
       d="M 2,1 H 3 M 6,1 Z M 7,2 Z M 9,1 v 1"
       id="path16"
       style="display:inline"
       inkscape:label="grass-light" />
    <path
       stroke="#77cc55"
       d="M 5,3 Z M 3,2 h 1"
       id="path18"
       style="display:inline"
       inkscape:label="grass-extra-light" />
    <path
       stroke="#99cc66"
       d="M 1,1 V 2 H 2 M 8,1 Z"
       id="path20"
       style="display:inline"
       inkscape:label="grass-reflections" />
  </g>
  <use
     xlink:href="#a"
     transform="matrix(-1,0,0,1,513,0)"
     opacity="1"
     id="use23"
     x="0"
     y="0"
     width="100%"
     height="100%"
     inkscape:label="right" />
  <g
     transform="matrix(-19,11,-19,-11,447,159)"
     id="g31"
     inkscape:label="top">
    <path
       fill="#77bb44"
       d="m 0.5,0.5 h 9 v 9 h -9"
       id="path25"
       style="display:inline"
       inkscape:label="dark" />
    <path
       stroke="#88cc55"
       d="M 1,1 Z M 3,1 Z M 4,7 Z M 3,4 V 6 H 1 V 8 H 4 V 9 H 6 V 7 M 2,3 H 6 V 1 H 5 V 2 H 8 M 7,4 V 5 H 4 M 9,4 V 6 H 8 v 3"
       id="path27"
       inkscape:label="reflections"
       style="display:inline" />
    <path
       stroke="#aadd77"
       d="M 1,3 V 5 M 1,7 Z M 1,9 Z M 3,3 Z M 4,4 Z M 5,1 Z M 5,3 Z M 5,5 V 6 M 5,8 V 9 M 7,2 v 1 m 1,4 h 1"
       id="path29"
       style="display:inline"
       inkscape:label="light" />
  </g>
</svg>
